REM DIRINDEX 1\2,1\3,1\4,1\5,1\6
REM DIRNAME folder01,folder02,folder03,folder04,folder05,folder06
TITLE ""
FILE "Disc2Track50.mp3" MP3
  TRACK 01 AUDIO
    TITLE "3:cjc030_03563"
    INDEX 01 00:00:00
  TRACK 02 AUDIO
    TITLE "0:"
    INDEX 01 00:02:04
  TRACK 03 AUDIO
    TITLE "4:cjc030_03564"
    INDEX 01 00:02:14
  TRACK 04 AUDIO
    TITLE "0:"
    INDEX 01 00:03:06
  TRACK 05 AUDIO
    TITLE "5:cjc030_03565"
    INDEX 01 00:03:12
  TRACK 06 AUDIO
    TITLE "0:"
    INDEX 01 00:05:22
  TRACK 07 AUDIO
    TITLE "6:cjc030_03566"
    INDEX 01 00:05:34
  TRACK 08 AUDIO
    TITLE "0:"
    INDEX 01 00:09:40
  TRACK 09 AUDIO
    TITLE "3:cjc030_03567"
    INDEX 01 00:10:18
  TRACK 10 AUDIO
    TITLE "0:"
    INDEX 01 00:12:20
  TRACK 11 AUDIO
    TITLE "4:cjc030_03568"
    INDEX 01 00:12:28
  TRACK 12 AUDIO
    TITLE "0:"
    INDEX 01 00:13:33
  TRACK 13 AUDIO
    TITLE "5:cjc030_03569"
    INDEX 01 00:13:43
  TRACK 14 AUDIO
    TITLE "0:"
    INDEX 01 00:15:46
  TRACK 15 AUDIO
    TITLE "6:cjc030_03570"
    INDEX 01 00:15:58
  TRACK 16 AUDIO
    TITLE "0:"
    INDEX 01 00:20:26
  TRACK 17 AUDIO
    TITLE "3:cjc030_03571"
    INDEX 01 00:21:00
  TRACK 18 AUDIO
    TITLE "0:"
    INDEX 01 00:21:74
  TRACK 19 AUDIO
    TITLE "4:cjc030_03572"
    INDEX 01 00:22:07
  TRACK 20 AUDIO
    TITLE "0:"
    INDEX 01 00:23:03
  TRACK 21 AUDIO
    TITLE "5:cjc030_03573"
    INDEX 01 00:23:10
  TRACK 22 AUDIO
    TITLE "0:"
    INDEX 01 00:24:08
  TRACK 23 AUDIO
    TITLE "6:cjc030_03574"
    INDEX 01 00:24:24
  TRACK 24 AUDIO
    TITLE "0:"
    INDEX 01 00:29:19
  TRACK 25 AUDIO
    TITLE "3:cjc030_03575"
    INDEX 01 00:29:66
  TRACK 26 AUDIO
    TITLE "0:"
    INDEX 01 00:30:71
  TRACK 27 AUDIO
    TITLE "4:cjc030_03576"
    INDEX 01 00:31:06
  TRACK 28 AUDIO
    TITLE "0:"
    INDEX 01 00:31:73
  TRACK 29 AUDIO
    TITLE "5:cjc030_03577"
    INDEX 01 00:32:05
  TRACK 30 AUDIO
    TITLE "0:"
    INDEX 01 00:33:13
  TRACK 31 AUDIO
    TITLE "3:cjc030_03578"
    INDEX 01 00:33:66
  TRACK 32 AUDIO
    TITLE "0:"
    INDEX 01 00:35:02
  TRACK 33 AUDIO
    TITLE "4:cjc030_03579"
    INDEX 01 00:35:10
  TRACK 34 AUDIO
    TITLE "0:"
    INDEX 01 00:36:46
  TRACK 35 AUDIO
    TITLE "5:cjc030_03580"
    INDEX 01 00:36:58
  TRACK 36 AUDIO
    TITLE "0:"
    INDEX 01 00:37:69
  TRACK 37 AUDIO
    TITLE "6:cjc030_03581"
    INDEX 01 00:38:06
  TRACK 38 AUDIO
    TITLE "0:"
    INDEX 01 00:41:55
  TRACK 39 AUDIO
    TITLE "3:cjc030_03582"
    INDEX 01 00:42:29
  TRACK 40 AUDIO
    TITLE "0:"
    INDEX 01 00:44:20
  TRACK 41 AUDIO
    TITLE "4:cjc030_03583"
    INDEX 01 00:44:30
  TRACK 42 AUDIO
    TITLE "0:"
    INDEX 01 00:46:00
  TRACK 43 AUDIO
    TITLE "5:cjc030_03584"
    INDEX 01 00:46:09
  TRACK 44 AUDIO
    TITLE "0:"
    INDEX 01 00:48:02
  TRACK 45 AUDIO
    TITLE "6:cjc030_03585"
    INDEX 01 00:48:14
  TRACK 46 AUDIO
    TITLE "0:"
    INDEX 01 00:53:72
  TRACK 47 AUDIO
    TITLE "3:cjc030_03586"
    INDEX 01 00:54:46
  TRACK 48 AUDIO
    TITLE "0:"
    INDEX 01 00:55:63
  TRACK 49 AUDIO
    TITLE "4:cjc030_03587"
    INDEX 01 00:55:73
  TRACK 50 AUDIO
    TITLE "0:"
    INDEX 01 00:56:55
  TRACK 51 AUDIO
    TITLE "5:cjc030_03588"
    INDEX 01 00:56:65
  TRACK 52 AUDIO
    TITLE "0:"
    INDEX 01 00:58:09
  TRACK 53 AUDIO
    TITLE "3:cjc030_03589"
    INDEX 01 00:58:60
  TRACK 54 AUDIO
    TITLE "0:"
    INDEX 01 00:59:71
  TRACK 55 AUDIO
    TITLE "4:cjc030_03590"
    INDEX 01 01:00:06
  TRACK 56 AUDIO
    TITLE "0:"
    INDEX 01 01:01:07
  TRACK 57 AUDIO
    TITLE "5:cjc030_03591"
    INDEX 01 01:01:15
  TRACK 58 AUDIO
    TITLE "0:"
    INDEX 01 01:02:28
  TRACK 59 AUDIO
    TITLE "3:cjc030_03592"
    INDEX 01 01:03:06
  TRACK 60 AUDIO
    TITLE "0:"
    INDEX 01 01:04:31
  TRACK 61 AUDIO
    TITLE "4:cjc030_03593"
    INDEX 01 01:04:41
  TRACK 62 AUDIO
    TITLE "0:"
    INDEX 01 01:05:42
  TRACK 63 AUDIO
    TITLE "5:cjc030_03594"
    INDEX 01 01:05:50
  TRACK 64 AUDIO
    TITLE "0:"
    INDEX 01 01:07:04
  TRACK 65 AUDIO
    TITLE "6:cjc030_03595"
    INDEX 01 01:07:14
  TRACK 66 AUDIO
    TITLE "0:"
    INDEX 01 01:12:01
  TRACK 67 AUDIO
    TITLE "3:cjc030_03596"
    INDEX 01 01:12:50
  TRACK 68 AUDIO
    TITLE "0:"
    INDEX 01 01:14:55
  TRACK 69 AUDIO
    TITLE "4:cjc030_03597"
    INDEX 01 01:14:65
  TRACK 70 AUDIO
    TITLE "0:"
    INDEX 01 01:15:66
  TRACK 71 AUDIO
    TITLE "5:cjc030_03598"
    INDEX 01 01:16:01
  TRACK 72 AUDIO
    TITLE "0:"
    INDEX 01 01:18:06
  TRACK 73 AUDIO
    TITLE "3:cjc030_03599"
    INDEX 01 01:18:58
  TRACK 74 AUDIO
    TITLE "0:"
    INDEX 01 01:19:74
  TRACK 75 AUDIO
    TITLE "4:cjc030_03600"
    INDEX 01 01:20:08
  TRACK 76 AUDIO
    TITLE "0:"
    INDEX 01 01:22:11
  TRACK 77 AUDIO
    TITLE "5:cjc030_03601"
    INDEX 01 01:22:21
  TRACK 78 AUDIO
    TITLE "0:"
    INDEX 01 01:23:36
  TRACK 79 AUDIO
    TITLE "6:cjc030_03602"
    INDEX 01 01:23:46
  TRACK 80 AUDIO
    TITLE "0:"
    INDEX 01 01:28:06
